<?xml version="1.0" encoding="UTF-8" standalone="no"?>
<!-- Created with Inkscape (http://www.inkscape.org/) -->

<svg
   version="1.1"
   id="svg1"
   width="494.51331"
   height="59.334923"
   viewBox="0 0 494.51331 59.334923"
   sodipodi:docname="virt-layer.svg"
   inkscape:version="1.3.2 (091e20ef0f, 2023-11-25, custom)"
   xmlns:inkscape="http://www.inkscape.org/namespaces/inkscape"
   xmlns:sodipodi="http://sodipodi.sourceforge.net/DTD/sodipodi-0.dtd"
   xmlns="http://www.w3.org/2000/svg"
   xmlns:svg="http://www.w3.org/2000/svg">
  <defs
     id="defs1" />
  <sodipodi:namedview
     id="namedview1"
     pagecolor="#ffffff"
     bordercolor="#666666"
     borderopacity="1.0"
     inkscape:showpageshadow="2"
     inkscape:pageopacity="0.0"
     inkscape:pagecheckerboard="0"
     inkscape:deskcolor="#d1d1d1"
     inkscape:zoom="2.5742482"
     inkscape:cx="247.25665"
     inkscape:cy="29.523182"
     inkscape:window-width="1920"
     inkscape:window-height="1012"
     inkscape:window-x="0"
     inkscape:window-y="0"
     inkscape:window-maximized="1"
     inkscape:current-layer="g1">
    <inkscape:page
       x="0"
       y="0"
       inkscape:label="1"
       id="page1"
       width="494.51331"
       height="59.334923"
       margin="0"
       bleed="0" />
  </sodipodi:namedview>
  <g
     id="g1"
     inkscape:groupmode="layer"
     inkscape:label="1">
    <path
       id="path1"
       d="M 0.852,0.852 H 126.707 V 43.649 H 0.852 Z"
       style="fill:#db6a64;fill-opacity:1;fill-rule:nonzero;stroke:#ffffff;stroke-width:1.70079;stroke-linecap:butt;stroke-linejoin:miter;stroke-miterlimit:4;stroke-dasharray:none;stroke-opacity:1"
       transform="scale(1.3333333)" />
    <path
       id="path2"
       d="M 161.328,43.594 V 0.906 L 280.75,0.902 v 42.692 z"
       style="fill:#e7a367;fill-opacity:1;fill-rule:nonzero;stroke:#ffffff;stroke-width:1.70079;stroke-linecap:butt;stroke-linejoin:miter;stroke-miterlimit:4;stroke-dasharray:none;stroke-opacity:1"
       transform="scale(1.3333333)" />
    <path
       id="path3"
       d="m 3.9595486,0.1069215 c 0.6679687,0 1.3710937,-0.15234375 2.0273437,-0.4453125 l -0.1875,-0.609375 c -0.5039062,0.19921875 -1.125,0.31640625 -1.6523437,0.31640625 -1.6640625,0 -2.7539063,-1.17187495 -2.7539063,-2.94140625 0,-1.6992187 1.0078125,-2.71875 2.671875,-2.71875 0.5625,0 1.1953125,0.1171875 1.7226563,0.3164063 l 0.234375,-0.6210938 C 5.5181423,-6.8657347 4.7915798,-7.0297972 4.1118923,-7.0297972 c -2.1445312,0 -3.57421874,1.4648437 -3.57421874,3.6445312 0,2.0859375 1.37109374,3.4921875 3.42187504,3.4921875 z M 7.2818142,0.00145275 h 0.796875 V -3.7016722 l -0.140625,-1.1132813 h -0.65625 z M 7.9029079,-3.1274535 c 0.28125,-0.609375 0.8554688,-0.984375 1.5117188,-0.984375 0.1992187,0 0.375,0.035156 0.5390625,0.09375 l 0.1992188,-0.7382812 c -0.2109376,-0.070312 -0.4218751,-0.1054688 -0.6445313,-0.1054688 -0.6445313,0 -1.2539063,0.3398438 -1.6054688,0.9257813 z m 3.1494141,3.12890625 h 0.796875 V -4.8149535 h -0.796875 z m 0.410156,-5.95312495 c 0.351563,0 0.5625,-0.1992188 0.5625,-0.5625 0,-0.3632813 -0.210937,-0.5742188 -0.5625,-0.5742188 -0.363281,0 -0.574218,0.2109375 -0.574218,0.5742188 0,0.3632812 0.210937,0.5625 0.574218,0.5625 z m 3.9375,6.0585937 c 0.574219,0 1.183594,-0.140625 1.582032,-0.38671875 L 16.79451,-0.854016 c -0.398438,0.1875 -0.832032,0.29296875 -1.207032,0.29296875 -0.996093,0 -1.570312,-0.69140625 -1.570312,-1.86328125 0,-1.1601562 0.5625,-1.7929687 1.558594,-1.7929687 0.386718,0 0.808593,0.09375 1.21875,0.2695312 l 0.1875,-0.6445312 c -0.445313,-0.2109375 -0.914063,-0.328125 -1.394532,-0.328125 -1.429687,0 -2.390625,1.0664062 -2.390625,2.6484375 0,1.4882812 0.820313,2.3789062 2.203125,2.3789062 z m 5.830078,-0.10546875 h 1.054688 l -2.507813,-2.85937495 -0.05859,0.4921875 2.355468,-2.4492188 h -0.949218 l -2.167969,2.25 z m -3.046875,0 h 0.796875 V -7.3813597 h -0.796875 z m 7.145508,0.10546875 c 0.550781,0 1.148438,-0.140625 1.582031,-0.36328125 l -0.1875,-0.5859375 c -0.363281,0.1875 -0.832031,0.29296875 -1.253906,0.29296875 -1.136719,0 -1.804687,-0.75 -1.804687,-2.0039062 0,-1.078125 0.492187,-1.6875 1.371093,-1.6875 0.820313,0 1.300782,0.5390625 1.300782,1.453125 h -2.8125 v 0.5976562 h 3.527343 c 0.01172,-0.1523437 0.03516,-0.4921875 0.03516,-0.6914062 0,-1.2070313 -0.796875,-2.0390625 -1.992188,-2.0390625 -1.335937,0 -2.25,1.0546875 -2.25,2.53125 0,1.5351562 0.949219,2.4960937 2.484375,2.4960937 z m 4.766602,-0.05859375 c 0.328125,0 0.65625,-0.08203125 0.878906,-0.17578125 L 30.798416,-0.713391 c -0.152344,0.0703125 -0.363281,0.1171875 -0.539063,0.1171875 -0.503906,0 -0.832031,-0.31640625 -0.832031,-0.796875 v -4.828125 h -0.796875 v 4.9335938 c 0,0.79687495 0.574219,1.33593745 1.464844,1.33593745 z M 27.985916,-4.1469847 h 2.765625 V -4.8149535 H 27.985916 Z M 4.1265408,15.921375 c 1.1953125,0 1.921875,-0.5625 1.921875,-1.453125 0,-1.769532 -2.8828125,-1.113282 -2.8828125,-2.203125 0,-0.421875 0.4570312,-0.691407 1.171875,-0.691407 0.4101562,0 0.890625,0.09375 1.3007812,0.234375 l 0.1875,-0.644531 c -0.4101562,-0.175781 -0.890625,-0.269531 -1.40625,-0.269531 -1.2539062,0 -2.0507812,0.550781 -2.0507812,1.464844 0,1.722656 2.8710937,1.007812 2.8710937,2.191406 0,0.433594 -0.3867187,0.691406 -1.0546875,0.691406 -0.5039062,0 -1.1835937,-0.140625 -1.6992187,-0.363281 l -0.1875,0.644531 c 0.5507812,0.257813 1.21875,0.398438 1.828125,0.398438 z m 5.352539,0 c 0.5507812,0 1.1484372,-0.140625 1.5820312,-0.363282 l -0.1875,-0.585937 c -0.363281,0.1875 -0.832031,0.292969 -1.2539062,0.292969 -1.1367187,0 -1.8046875,-0.75 -1.8046875,-2.003907 0,-1.078125 0.4921875,-1.6875 1.3710938,-1.6875 0.8203129,0 1.3007809,0.539063 1.3007809,1.453125 H 7.6743923 V 13.6245 h 3.5273437 c 0.01172,-0.152344 0.03516,-0.492188 0.03516,-0.691407 0,-1.207031 -0.796875,-2.039062 -1.9921872,-2.039062 -1.3359375,0 -2.25,1.054687 -2.25,2.53125 0,1.535156 0.9492188,2.496094 2.484375,2.496094 z m 3.1142582,-0.105469 h 0.796875 V 12.112781 L 13.249588,10.9995 h -0.65625 z M 13.214431,12.687 c 0.28125,-0.609375 0.855469,-0.984375 1.511719,-0.984375 0.199219,0 0.375,0.03516 0.539063,0.09375 l 0.199218,-0.738282 c -0.210937,-0.07031 -0.421875,-0.105468 -0.644531,-0.105468 -0.644531,0 -1.253906,0.339843 -1.605469,0.925781 z m 4.330079,3.128906 h 0.785156 l 1.875,-4.816406 h -0.796875 l -1.664063,4.652343 h 0.433594 L 16.536697,10.9995 h -0.890625 z m 5.786132,0.105469 c 0.550782,0 1.148438,-0.140625 1.582032,-0.363282 l -0.1875,-0.585937 c -0.363282,0.1875 -0.832032,0.292969 -1.253907,0.292969 -1.136718,0 -1.804687,-0.75 -1.804687,-2.003907 0,-1.078125 0.492187,-1.6875 1.371094,-1.6875 0.820312,0 1.300781,0.539063 1.300781,1.453125 h -2.8125 V 13.6245 h 3.527344 c 0.01172,-0.152344 0.03516,-0.492188 0.03516,-0.691407 0,-1.207031 -0.796875,-2.039062 -1.992188,-2.039062 -1.335937,0 -2.25,1.054687 -2.25,2.53125 0,1.535156 0.949219,2.496094 2.484375,2.496094 z m 3.111328,-0.105469 h 0.796875 V 12.112781 L 27.09822,10.9995 H 26.44197 Z M 27.063064,12.687 c 0.28125,-0.609375 0.855469,-0.984375 1.511719,-0.984375 0.199219,0 0.375,0.03516 0.539062,0.09375 l 0.199219,-0.738282 c -0.210937,-0.07031 -0.421875,-0.105468 -0.644531,-0.105468 -0.644531,0 -1.253906,0.339843 -1.605469,0.925781 z m 0,0"
       style="fill:#000000;fill-opacity:1;fill-rule:nonzero;stroke:none"
       aria-label="Cricket&#10;server"
       transform="matrix(1.3333333,0,0,1.3333333,233.38857,24.388688)" />
    <path
       id="path4"
       d="M 221.047,1.133 H 280.75 V 43.652 H 221.047 V 29.477 c 0,0 -0.102,-6.786 6.789,-3.606 5.836,2.695 5.66,-10.48 1.117,-9.07 -8.105,2.515 -7.906,-4.332 -7.906,-4.332 z"
       style="fill:#db6a64;fill-opacity:1;fill-rule:nonzero;stroke:#ffffff;stroke-width:1.70079;stroke-linecap:butt;stroke-linejoin:miter;stroke-miterlimit:4;stroke-dasharray:none;stroke-opacity:1"
       transform="scale(1.3333333)" />
    <path
       id="path5"
       d="m 3.9613879,0.10641494 c 0.6679687,0 1.3710937,-0.15234375 2.0273437,-0.4453125 l -0.1875,-0.609375 c -0.5039062,0.19921875 -1.125,0.31640625 -1.6523437,0.31640625 -1.6640625,0 -2.7539063,-1.17187499 -2.7539063,-2.94140629 0,-1.6992187 1.0078125,-2.71875 2.671875,-2.71875 0.5625,0 1.1953125,0.1171875 1.7226563,0.3164063 l 0.234375,-0.6210938 C 5.5199816,-6.8662413 4.7934191,-7.0303038 4.1137316,-7.0303038 c -2.1445312,0 -3.57421873,1.4648437 -3.57421873,3.6445312 0,2.0859375 1.37109373,3.49218754 3.42187503,3.49218754 z m 5.7802734,0 c 1.6171877,0 2.6953127,-1.01953125 2.6953127,-2.56640624 V -6.9365538 H 11.62838 v 4.5820312 c 0,1.0898438 -0.65625,1.72265629 -1.7695312,1.72265629 -1.1835937,0 -1.8632812,-0.69140629 -1.8632812,-1.89843749 v -4.40625 H 7.1635363 v 4.5117187 c 0,1.52343754 1.0195313,2.53125004 2.578125,2.53125004 z M 14.074669,9.461875e-4 h 2.121094 c 2.097656,0 3.527344,-1.3710937875 3.527344,-3.5976562875 0,-2.0976562 -1.253907,-3.3398437 -3.375,-3.3398437 H 14.074669 Z M 14.9067,-0.71389756 V -6.2217101 h 1.347657 c 1.6875,0 2.625,0.9960938 2.625,2.7539063 0,1.7460937 -0.925782,2.75390624 -2.578125,2.75390624 z m 5.434571,0.7148437475 h 0.867187 L 23.481896,-6.3623351 h -0.09375 l 2.144531,6.3632812875 h 0.925781 L 24.020958,-6.9365538 h -1.078125 z m 1.3125,-2.0624999875 h 3.46875 v -0.7148438 h -3.46875 z M 3.2143176,15.815399 H 4.0815051 L 6.3549426,9.4521181 h -0.09375 l 2.1445312,6.3632809 h 0.9257813 l -2.4375,-6.9374997 h -1.078125 z m 1.3125,-2.0625 h 3.46875 v -0.714843 h -3.46875 z m 7.8310544,2.167969 c 1.335938,0 2.238282,-1.042969 2.238282,-2.601562 0,-1.453125 -0.832032,-2.425782 -2.074219,-2.425782 -0.691406,0 -1.335938,0.304688 -1.746094,0.820313 l 0.175781,0.503906 c 0.351563,-0.386719 0.855469,-0.621094 1.359375,-0.621094 0.902344,0 1.476563,0.714844 1.476563,1.816407 0,1.078125 -0.527344,1.804687 -1.394531,1.804687 -0.714844,0 -1.324219,-0.46875 -1.488282,-1.183594 l -0.328125,0.550782 c 0.222657,0.84375 0.902344,1.335937 1.78125,1.335937 z m -2.121093,2.0625 h 0.796875 v -6.421875 l -0.234375,-0.5625 h -0.5625 z m 7.831054,-2.0625 c 1.335938,0 2.238281,-1.042969 2.238281,-2.601562 0,-1.453125 -0.832031,-2.425782 -2.074218,-2.425782 -0.691407,0 -1.335938,0.304688 -1.746094,0.820313 l 0.175781,0.503906 c 0.351563,-0.386719 0.855469,-0.621094 1.359375,-0.621094 0.902344,0 1.476563,0.714844 1.476563,1.816407 0,1.078125 -0.527344,1.804687 -1.394532,1.804687 -0.714843,0 -1.324218,-0.46875 -1.488281,-1.183594 l -0.328125,0.550782 c 0.222656,0.84375 0.902344,1.335937 1.78125,1.335937 z m -2.121094,2.0625 h 0.796875 v -6.421875 l -0.234375,-0.5625 h -0.5625 z m 6.155274,-2.0625 c 0.386719,0 0.644531,-0.28125 0.644531,-0.644531 0,-0.375 -0.257812,-0.644531 -0.644531,-0.644531 -0.375,0 -0.632813,0.269531 -0.632813,0.644531 0,0.363281 0.257813,0.644531 0.632813,0.644531 z m 0,0"
       style="fill:#000000;fill-opacity:1;fill-rule:nonzero;stroke:none"
       aria-label="CUDA&#10;App."
       transform="matrix(1.3333333,0,0,1.3333333,23.132212,23.096395)" />
    <path
       id="path6"
       d="m 61.324,0.852 h 65.383 v 42.46 L 61.324,43.371 V 29.195 c 0,0 -0.101,-6.785 6.789,-3.605 5.836,2.695 5.66,-10.481 1.117,-9.07 -8.105,2.515 -7.906,-4.332 -7.906,-4.332 z"
       style="fill:#e7a367;fill-opacity:1;fill-rule:nonzero;stroke:#ffffff;stroke-width:1.70079;stroke-linecap:butt;stroke-linejoin:miter;stroke-miterlimit:4;stroke-dasharray:none;stroke-opacity:1"
       transform="scale(1.3333333)" />
    <path
       id="path7"
       d="m 3.9603989,0.1049235 c 0.6679687,0 1.3710937,-0.15234375 2.0273437,-0.4453125 l -0.1875,-0.609375 c -0.5039062,0.19921875 -1.125,0.31640625 -1.6523437,0.31640625 -1.6640625,0 -2.7539063,-1.17187505 -2.7539063,-2.94140625 0,-1.6992188 1.0078125,-2.71875 2.671875,-2.71875 0.5625,0 1.1953125,0.1171875 1.7226563,0.3164062 l 0.234375,-0.6210937 C 5.5189926,-6.8677328 4.7924301,-7.0317953 4.1127426,-7.0317953 c -2.1445312,0 -3.57421872,1.4648438 -3.57421872,3.6445313 0,2.0859375 1.37109372,3.4921875 3.42187502,3.4921875 z M 7.2826645,-5.4525e-4 h 0.796875 V -3.7036703 l -0.140625,-1.1132812 h -0.65625 z M 7.9037583,-3.1294515 c 0.28125,-0.609375 0.8554687,-0.984375 1.5117187,-0.984375 0.1992188,0 0.375,0.035156 0.5390625,0.09375 l 0.1992185,-0.7382813 c -0.2109372,-0.070312 -0.4218747,-0.1054687 -0.644531,-0.1054687 -0.6445312,0 -1.2539062,0.3398437 -1.6054687,0.9257812 z m 3.1494137,3.12890625 h 0.796875 V -4.8169515 h -0.796875 z m 0.410157,-5.95312505 c 0.351562,0 0.5625,-0.1992187 0.5625,-0.5625 0,-0.3632812 -0.210938,-0.5742187 -0.5625,-0.5742187 -0.363282,0 -0.574219,0.2109375 -0.574219,0.5742187 0,0.3632813 0.210937,0.5625 0.574219,0.5625 z m 3.93457,6.0585938 c 0.574219,0 1.183594,-0.140625 1.582031,-0.38671875 L 16.79243,-0.856014 c -0.398437,0.1875 -0.832031,0.29296875 -1.207031,0.29296875 -0.996094,0 -1.570313,-0.69140625 -1.570313,-1.86328125 0,-1.1601563 0.5625,-1.7929688 1.558594,-1.7929688 0.386719,0 0.808594,0.09375 1.21875,0.2695313 l 0.1875,-0.6445313 c -0.445312,-0.2109375 -0.914062,-0.328125 -1.394531,-0.328125 -1.429688,0 -2.390625,1.0664063 -2.390625,2.6484375 0,1.4882813 0.820312,2.3789063 2.203125,2.3789063 z m 5.830078,-0.10546875 h 1.054688 l -2.507813,-2.85937505 -0.05859,0.4921875 2.355469,-2.4492187 h -0.949219 l -2.167968,2.25 z m -3.046875,0 h 0.796875 V -7.3833578 H 18.181102 Z M 25.32954,0.1049235 c 0.550781,0 1.148437,-0.140625 1.582031,-0.36328125 l -0.1875,-0.5859375 c -0.363281,0.1875 -0.832031,0.29296875 -1.253906,0.29296875 -1.136719,0 -1.804688,-0.75 -1.804688,-2.0039063 0,-1.078125 0.492188,-1.6875 1.371094,-1.6875 0.820312,0 1.300781,0.5390625 1.300781,1.453125 h -2.8125 v 0.5976563 h 3.527344 c 0.01172,-0.1523438 0.03516,-0.4921875 0.03516,-0.6914063 0,-1.2070312 -0.796875,-2.0390625 -1.992187,-2.0390625 -1.335938,0 -2.25,1.0546875 -2.25,2.53125 0,1.5351563 0.949218,2.4960938 2.484375,2.4960938 z m 4.763671,-0.05859375 c 0.328125,0 0.65625,-0.08203125 0.878907,-0.17578125 L 30.796336,-0.715389 c -0.152343,0.0703125 -0.363281,0.1171875 -0.539062,0.1171875 -0.503906,0 -0.832031,-0.31640625 -0.832031,-0.796875 v -4.828125 h -0.796875 v 4.9335937 c 0,0.79687505 0.574218,1.33593755 1.464843,1.33593755 z M 27.983836,-4.1489828 h 2.765625 V -4.8169515 H 27.983836 Z M 6.0932114,15.922306 c 0.5742187,0 1.1835937,-0.140625 1.5820312,-0.386718 l -0.1875,-0.574219 c -0.3984375,0.1875 -0.8320312,0.292969 -1.2070312,0.292969 -0.9960938,0 -1.5703125,-0.691407 -1.5703125,-1.863282 0,-1.160156 0.5625,-1.792968 1.5585937,-1.792968 0.3867188,0 0.8085938,0.09375 1.21875,0.269531 l 0.1875,-0.644531 C 7.2299301,11.01215 6.7611801,10.894963 6.2807114,10.894963 c -1.4296875,0 -2.390625,1.066406 -2.390625,2.648437 0,1.488281 0.8203125,2.378906 2.203125,2.378906 z m 3.8730469,-0.04687 c 0.2578127,0 0.5624997,-0.05859 0.7617187,-0.164062 l -0.1875,-0.550781 c -0.117187,0.04687 -0.222656,0.08203 -0.351562,0.08203 -0.3398442,0 -0.5156255,-0.234375 -0.5156255,-0.609375 V 8.4340251 h -0.796875 v 6.3046879 c 0,0.691406 0.421875,1.136718 1.0898438,1.136718 z m 1.6904297,-0.05859 h 0.796875 v -4.816407 h -0.796875 z m 0.410156,-5.9531254 c 0.351563,0 0.5625,-0.1992188 0.5625,-0.5625 0,-0.3632813 -0.210937,-0.5742188 -0.5625,-0.5742188 -0.363281,0 -0.574219,0.2109375 -0.574219,0.5742188 0,0.3632812 0.210938,0.5625 0.574219,0.5625 z m 4.21875,6.0585934 c 0.550781,0 1.148438,-0.140625 1.582031,-0.363281 l -0.1875,-0.585937 c -0.363281,0.1875 -0.832031,0.292968 -1.253906,0.292968 -1.136719,0 -1.804687,-0.75 -1.804687,-2.003906 0,-1.078125 0.492187,-1.6875 1.371093,-1.6875 0.820313,0 1.300782,0.539063 1.300782,1.453125 h -2.8125 v 0.597656 h 3.527343 c 0.01172,-0.152343 0.03516,-0.492187 0.03516,-0.691406 0,-1.207031 -0.796875,-2.039062 -1.992188,-2.039062 -1.335937,0 -2.25,1.054687 -2.25,2.53125 0,1.535156 0.949219,2.496093 2.484375,2.496093 z m 6.392578,-0.105468 h 0.808594 v -3.164063 c 0,-1.066406 -0.714844,-1.757812 -1.792969,-1.757812 -0.703125,0 -1.394531,0.304687 -1.898437,0.832031 l 0.1875,0.515625 c 0.398437,-0.410156 0.925781,-0.644531 1.488281,-0.644531 0.785156,0 1.207031,0.445312 1.207031,1.21875 z m -3.28125,0 h 0.796875 v -4.253907 l -0.234375,-0.5625 h -0.5625 z m 7.321289,0.04687 c 0.328125,0 0.65625,-0.08203 0.878907,-0.175782 l -0.175782,-0.585937 c -0.152343,0.07031 -0.363281,0.117187 -0.539062,0.117187 -0.503906,0 -0.832031,-0.316406 -0.832031,-0.796875 V 9.5941813 h -0.796875 v 4.9335937 c 0,0.796875 0.574218,1.335938 1.464843,1.335938 z M 24.608836,11.6684 h 2.765625 v -0.667969 h -2.765625 z m 0,0"
       style="fill:#000000;fill-opacity:1;fill-rule:nonzero;stroke:none"
       aria-label="Cricket&#10;client"
       transform="matrix(1.3333333,0,0,1.3333333,108.13353,24.203852)" />
    <path
       id="path8"
       d="m 129.297,11.84 h 31.406 z"
       style="fill:none;stroke:#bb7c42;stroke-width:1.27276;stroke-linecap:butt;stroke-linejoin:miter;stroke-miterlimit:3.9;stroke-dasharray:none;stroke-opacity:1"
       transform="scale(1.3333333)" />
    <path
       id="path9"
       d="m 135.957,14.918 -8.344,-3.066 8.344,-3.071 c -1.332,1.813 -1.328,4.293 0,6.137 z"
       style="fill:#bb7c42;fill-opacity:1;fill-rule:evenodd;stroke:#bb7c42;stroke-width:0.477283;stroke-linecap:butt;stroke-linejoin:round;stroke-miterlimit:4;stroke-dasharray:none;stroke-opacity:1"
       transform="scale(1.3333333)" />
    <path
       id="path10"
       d="M 158.617,32.852 H 127.211 Z"
       style="fill:none;stroke:#bb7c42;stroke-width:1.27276;stroke-linecap:butt;stroke-linejoin:miter;stroke-miterlimit:3.9;stroke-dasharray:none;stroke-opacity:1"
       transform="scale(1.3333333)" />
    <path
       id="path11"
       d="m -151.961,-29.77 -8.34,-3.07 8.34,-3.066 c -1.332,1.812 -1.324,4.289 0,6.136 z"
       style="fill:#bb7c42;fill-opacity:1;fill-rule:evenodd;stroke:#bb7c42;stroke-width:0.477283;stroke-linecap:butt;stroke-linejoin:round;stroke-miterlimit:4;stroke-dasharray:none;stroke-opacity:1"
       transform="scale(-1.3333333)" />
    <path
       id="path12"
       d="M 0.91341437,6.84875e-4 H 1.7454456 V -6.2219714 h 1.3710938 c 0.9960937,0 1.5703125,0.515625 1.5703125,1.3710938 0,0.8554687 -0.515625,1.3476562 -1.4648438,1.3476562 H 1.4524769 v 0.6914063 h 1.6640625 c 1.4414062,0 2.4257812,-0.9023438 2.4257812,-2.1796875 0,-1.2304688 -0.9023437,-1.9453125 -2.3203125,-1.9453125 H 0.91341437 Z m 4.03125003,0 H 5.9407581 L 4.0188831,-3.2805651 H 3.0696644 Z m 2.1679687,0 H 7.9446644 V -6.2219714 h 1.2304687 c 1.0078129,0 1.6874999,0.6679688 1.6874999,1.640625 0,0.9492188 -0.550781,1.4414063 -1.5820311,1.4414063 H 7.6516956 v 0.7265625 h 1.4765625 c 1.5468749,0 2.5898439,-0.9257813 2.5898439,-2.3085938 0,-1.3359375 -0.984375,-2.2148437 -2.4375001,-2.2148437 H 7.1126331 Z M 16.059899,0.10615362 c 0.667968,0 1.371093,-0.15234375 2.027343,-0.4453125 l -0.1875,-0.609375 c -0.503906,0.19921875 -1.125,0.31640625 -1.652343,0.31640625 -1.664063,0 -2.753907,-1.17187497 -2.753907,-2.94140627 0,-1.6992187 1.007813,-2.71875 2.671875,-2.71875 0.5625,0 1.195313,0.1171875 1.722657,0.3164063 l 0.234375,-0.6210938 c -0.503907,-0.2695312 -1.230469,-0.4335937 -1.910157,-0.4335937 -2.144531,0 -3.574218,1.4648437 -3.574218,3.6445312 0,2.0859375 1.371093,3.49218752 3.421875,3.49218752 z m 0,0"
       style="fill:#000000;fill-opacity:1;fill-rule:nonzero;stroke:none"
       aria-label="RPC"
       transform="matrix(1.3333333,0,0,1.3333333,177.85243,34.413149)" />
    <path
       id="path13"
       d="m 3.9606246,0.10610306 c 0.6679687,0 1.3710937,-0.15234375 2.0273437,-0.4453125 l -0.1875,-0.609375 c -0.5039062,0.19921875 -1.125,0.31640625 -1.6523437,0.31640625 -1.6640625,0 -2.7539063,-1.17187501 -2.7539063,-2.94140621 0,-1.6992188 1.0078125,-2.71875 2.671875,-2.71875 0.5625,0 1.1953125,0.1171875 1.7226563,0.3164062 l 0.234375,-0.6210937 C 5.5192183,-6.8665532 4.7926558,-7.0306157 4.1129683,-7.0306157 c -2.1445312,0 -3.57421874,1.4648438 -3.57421874,3.6445313 0,2.0859375 1.37109374,3.49218746 3.42187504,3.49218746 z m 5.7832031,0 c 1.6171873,0 2.6953123,-1.01953125 2.6953123,-2.56640626 v -4.4765625 h -0.808594 v 4.5820313 c 0,1.0898437 -0.65625,1.72265621 -1.7695308,1.72265621 -1.1835938,0 -1.8632813,-0.69140621 -1.8632813,-1.89843751 v -4.40625 H 7.1657027 v 4.5117188 c 0,1.52343746 1.0195312,2.53124996 2.578125,2.53124996 z M 14.073906,6.343125e-4 H 16.195 c 2.097656,0 3.527343,-1.3710937125 3.527343,-3.5976562125 0,-2.0976563 -1.253906,-3.3398438 -3.375,-3.3398438 H 14.073906 Z M 14.905937,-0.71420944 V -6.2220219 h 1.347656 c 1.6875,0 2.625,0.9960937 2.625,2.7539062 0,1.7460938 -0.925781,2.75390626 -2.578125,2.75390626 z m 5.43457,0.7148437525 h 0.867188 L 23.481132,-6.3626469 h -0.09375 l 2.144532,6.3632812125 h 0.925781 L 24.020195,-6.9368657 H 22.94207 Z m 1.3125,-2.0625000125 h 3.46875 v -0.7148437 h -3.46875 z M 3.600273,15.815087 H 4.4674605 L 6.740898,9.4518062 h -0.09375 l 2.1445313,6.3632808 h 0.9257812 l -2.4375,-6.9374996 h -1.078125 z m 1.3125,-2.0625 h 3.46875 v -0.714843 h -3.46875 z m 5.791992,2.0625 h 0.832031 V 9.5924312 h 1.230469 c 1.007813,0 1.6875,0.6679688 1.6875,1.6406248 0,0.949219 -0.550781,1.441406 -1.582031,1.441406 h -1.628906 v 0.726563 h 1.476562 c 1.546875,0 2.589844,-0.925781 2.589844,-2.308594 0,-1.3359373 -0.984375,-2.2148436 -2.4375,-2.2148436 h -2.167969 z m 5.900391,0 h 0.832031 V 8.8775874 h -0.832031 z m 4.040039,0.105469 c 1.195312,0 1.921875,-0.5625 1.921875,-1.453125 0,-1.769531 -2.882813,-1.113281 -2.882813,-2.203125 0,-0.421875 0.457032,-0.691406 1.171875,-0.691406 0.410157,0 0.890625,0.09375 1.300782,0.234375 l 0.1875,-0.644531 c -0.410157,-0.175782 -0.890625,-0.269532 -1.40625,-0.269532 -1.253907,0 -2.050782,0.550782 -2.050782,1.464844 0,1.722656 2.871094,1.007813 2.871094,2.191406 0,0.433594 -0.386719,0.691407 -1.054687,0.691407 -0.503907,0 -1.183594,-0.140625 -1.699219,-0.363282 l -0.1875,0.644532 c 0.550781,0.257812 1.21875,0.398437 1.828125,0.398437 z m 0,0"
       style="fill:#000000;fill-opacity:1;fill-rule:nonzero;stroke:none"
       aria-label="CUDA&#10;APIs"
       transform="matrix(1.3333333,0,0,1.3333333,322.19964,24.432748)" />
    <path
       id="path14"
       d="m 314.008,0.852 h 56.027 V 43.59 h -56.027 z"
       style="fill:#db6a64;fill-opacity:1;fill-rule:nonzero;stroke:#ffffff;stroke-width:1.70079;stroke-linecap:butt;stroke-linejoin:miter;stroke-miterlimit:4;stroke-dasharray:none;stroke-opacity:1"
       transform="scale(1.3333333)" />
    <path
       id="path15"
       d="m 4.0187154,0.09237831 c 0.9609375,0 1.828125,-0.28125 2.53125,-0.83203125 V -3.6810592 H 3.7491842 v 0.7265625 h 1.96875 v 2.23828126 l 0.1875,-0.41015626 c -0.5390625,0.31640626 -1.1484375,0.48046876 -1.7695313,0.48046876 -1.6640625,0 -2.7421875,-1.14843746 -2.7421875,-2.92968746 0,-1.7226563 0.984375,-2.71875 2.671875,-2.71875 0.6328125,0 1.359375,0.140625 1.96875,0.3632812 l 0.2460938,-0.6328125 c -0.609375,-0.3046875 -1.3476563,-0.46875 -2.0976563,-0.46875 -2.1914062,0 -3.64453121,1.4296875 -3.64453121,3.609375 0,2.1210938 1.38281251,3.51562501 3.48046871,3.51562501 z m 4.0458985,-0.09375 H 8.8966451 V -6.2240279 h 1.2304689 c 1.007812,0 1.6875,0.6679687 1.6875,1.640625 0,0.9492187 -0.550781,1.4414062 -1.582031,1.4414062 H 8.6036764 v 0.7265625 h 1.4765626 c 1.546875,0 2.589844,-0.9257812 2.589844,-2.3085937 0,-1.3359375 -0.984375,-2.2148438 -2.4375,-2.2148438 H 8.0646139 Z m 8.2792971,0.10546875 c 1.617187,0 2.695312,-1.01953125 2.695312,-2.56640626 V -6.9388717 H 18.23063 v 4.5820313 c 0,1.0898437 -0.65625,1.72265621 -1.769532,1.72265621 -1.183593,0 -1.863281,-0.69140621 -1.863281,-1.89843751 v -4.40625 h -0.832031 v 4.5117188 c 0,1.52343746 1.019531,2.53124996 2.578125,2.53124996 z m 0,0"
       style="fill:#000000;fill-opacity:1;fill-rule:nonzero;stroke:none"
       aria-label="GPU"
       transform="matrix(1.3333333,0,0,1.3333333,442.97374,34.247923)" />
    <path
       id="path16"
       d="m 282.836,11.668 h 31.406 z"
       style="fill:none;stroke:#9f2428;stroke-width:1.27276;stroke-linecap:butt;stroke-linejoin:miter;stroke-miterlimit:3.9;stroke-dasharray:none;stroke-opacity:1"
       transform="scale(1.3333333)" />
    <path
       id="path17"
       d="m 289.496,14.75 -8.344,-3.07 8.344,-3.067 c -1.336,1.813 -1.328,4.289 0,6.137 z"
       style="fill:#9f2428;fill-opacity:1;fill-rule:evenodd;stroke:#9f2428;stroke-width:0.477285;stroke-linecap:butt;stroke-linejoin:round;stroke-miterlimit:4;stroke-dasharray:none;stroke-opacity:1"
       transform="scale(1.3333333)" />
    <path
       id="path18"
       d="M 312.156,32.68 H 280.75 Z"
       style="fill:none;stroke:#9f2428;stroke-width:1.27276;stroke-linecap:butt;stroke-linejoin:miter;stroke-miterlimit:3.9;stroke-dasharray:none;stroke-opacity:1"
       transform="scale(1.3333333)" />
    <path
       id="path19"
       d="m -305.496,-29.602 -8.344,-3.066 8.344,-3.07 c -1.336,1.812 -1.328,4.293 0,6.136 z"
       style="fill:#9f2428;fill-opacity:1;fill-rule:evenodd;stroke:#9f2428;stroke-width:0.477285;stroke-linecap:butt;stroke-linejoin:round;stroke-miterlimit:4;stroke-dasharray:none;stroke-opacity:1"
       transform="scale(-1.3333333)" />
  </g>
</svg>
